<svg width="139" height="117" viewBox="0 0 139 117" fill="none" xmlns="http://www.w3.org/2000/svg">
<path d="M136.019 42.686C135.049 40.0209 134.595 38.5265 133.782 36.9913C133.099 35.7008 132.517 34.747 132.119 34.1299C127.858 27.5452 124.936 23.0491 120.041 18.6168C117.363 16.1966 115.147 14.7531 112.858 13.2613C107.252 9.4899 101.114 6.5677 94.6437 4.59044C88.4072 2.68796 79.5872 0 68.9894 0C48.3711 0 32.6963 10.201 26.1468 15.0464C-0.277102 38.5087 -3.61216 76.5073 2.80141 89.2585C5.80296 95.2286 8.01949 98.1231 10.1052 100.013C13.3351 102.935 16.2314 102.601 17.6809 105.58C19.41 109.135 17.4243 112.79 19.3484 114.123C20.3977 114.848 21.9677 114.473 23.0683 113.996C24.7025 113.287 25.6337 111.797 26.1468 109.844C27.0973 111.26 28.3007 112.491 29.6973 113.476C31.2161 114.542 33.1325 115.886 35.5106 115.653C39.1022 115.304 41.0699 111.609 41.2828 111.191C41.3008 111.208 43.4532 114.284 46.1571 115.781C46.7087 116.087 49.1459 117.436 51.9293 116.857C56.4419 115.924 58.13 110.698 58.2146 110.425C58.2582 110.456 65.0695 117.536 69.7591 116.801C72.0679 116.441 74.6642 114.072 76.9423 106.6C76.9038 106.57 76.8602 106.529 76.8704 106.501C76.9987 106.128 85.7263 108.796 86.9474 109.15C96.7345 111.902 121.763 104.494 133.125 83.6479C133.125 83.6479 144.123 64.947 136.019 42.686Z" fill="#2B2D42"/>
</svg>
