<svg width="72" height="114" viewBox="0 0 72 114" fill="none" xmlns="http://www.w3.org/2000/svg">
<path d="M23.95 62.75L24.1 61.55C24.1 57.25 25.3 53.85 27.7 51.35C30.2 48.85 32.9 47.2 35.8 46.4C38.7 45.6 41.35 44.25 43.75 42.35C46.25 40.45 47.5 37.9 47.5 34.7C47.5 31.4 46.55 28.85 44.65 27.05C42.85 25.25 40.1 24.35 36.4 24.35C32.7 24.35 29.95 24.95 28.15 26.15C26.45 27.25 25.4 28.4 25 29.6L24.55 31.4C23.65 34 22.6 36 21.4 37.4C20.2 38.7 18.65 39.35 16.75 39.35C14.85 39.35 12.35 38.75 9.25 37.55C3.25 35.25 0.25 32.4 0.25 29C0.25 27.5 0.55 26 1.15 24.5C1.75 22.9 2.25 21.6 2.65 20.6C3.05 19.5 4.1 17.65 5.8 15.05C7.6 12.45 9.6 10.2 11.8 8.3C14.1 6.29999 17.3 4.49999 21.4 2.9C25.5 1.19999 30.05 0.349993 35.05 0.349993C45.65 0.349993 54.3 3.74999 61 10.55C67.7 17.35 71.05 25.25 71.05 34.25C71.05 38.55 70.25 42.55 68.65 46.25C67.15 49.85 65.3 52.7 63.1 54.8C58.7 59 54.6 61.8 50.8 63.2L48.4 63.95C48.4 65.65 48.3 66.95 48.1 67.85C48 68.75 47.55 69.75 46.75 70.85C46.05 71.85 44.8 72.6 43 73.1C41.3 73.5 39 73.7 36.1 73.7C33.2 73.7 30.85 73.45 29.05 72.95C27.35 72.45 26.15 71.6 25.45 70.4C24.75 69.2 24.3 68.15 24.1 67.25C24 66.25 23.95 64.75 23.95 62.75ZM23.35 89.6C24.15 88 25.55 86.85 27.55 86.15C29.65 85.45 32.9 85.1 37.3 85.1C41.7 85.1 44.85 86.1 46.75 88.1C48.75 90 49.75 93.75 49.75 99.35C49.75 103.35 49.25 106.35 48.25 108.35C47.25 110.25 45.7 111.55 43.6 112.25C41.6 112.85 38.45 113.15 34.15 113.15C29.85 113.15 26.55 112.1 24.25 110C22.55 108.3 21.7 105.4 21.7 101.3V98.9C21.7 96.6 21.75 94.85 21.85 93.65C22.05 92.45 22.55 91.1 23.35 89.6Z" fill="#2B2D42"/>
</svg>
