<svg width="139" height="117" viewBox="0 0 139 117" fill="none" xmlns="http://www.w3.org/2000/svg">
<g clip-path="url(#clip0_42_21)">
<path d="M136.019 42.686C135.049 40.0209 134.595 38.5265 133.782 36.9913C133.099 35.7008 132.517 34.747 132.119 34.1299C127.858 27.5452 124.936 23.0491 120.041 18.6168C117.363 16.1966 115.147 14.7531 112.858 13.2613C107.252 9.4899 101.114 6.5677 94.6437 4.59044C88.4072 2.68796 79.5872 0 68.9894 0C48.3711 0 32.6963 10.201 26.1468 15.0464C-0.277102 38.5087 -3.61216 76.5073 2.80141 89.2585C5.80296 95.2286 8.01949 98.1231 10.1052 100.013C13.3351 102.935 16.2314 102.601 17.6809 105.58C19.41 109.135 17.4243 112.79 19.3484 114.123C20.3977 114.848 21.9677 114.473 23.0683 113.996C24.7025 113.287 25.6337 111.797 26.1468 109.844C27.0973 111.26 28.3007 112.491 29.6973 113.476C31.2161 114.542 33.1325 115.886 35.5106 115.653C39.1022 115.304 41.0699 111.609 41.2828 111.191C41.3008 111.208 43.4532 114.284 46.1571 115.781C46.7087 116.087 49.1459 117.436 51.9293 116.857C56.4419 115.924 58.13 110.698 58.2146 110.425C58.2582 110.456 65.0695 117.536 69.7591 116.801C72.0679 116.441 74.6642 114.072 76.9423 106.6C76.9038 106.57 76.8602 106.529 76.8704 106.501C76.9987 106.128 85.7263 108.796 86.9474 109.15C96.7345 111.902 121.763 104.494 133.125 83.6479C133.125 83.6479 144.123 64.947 136.019 42.686Z" fill="#2B2D42"/>
<path d="M28.8738 43.4816C20.1001 43.6244 18.8943 63.5188 18.8943 63.5188C18.43 72.8323 19.9385 80.2076 22.6373 82.9721C23.4347 83.779 24.3648 84.4448 25.3874 84.9409C28.33 86.2542 31.1468 85.4101 31.9421 85.1602C33.3507 84.7077 34.646 83.9618 35.7415 82.9721V75.76C35.7952 69.3646 36.2278 62.978 37.037 56.6332C37.3398 54.2666 37.6818 51.9713 38.0632 49.7475C38.0632 49.7475 37.6476 43.3388 28.8738 43.4816Z" fill="#2599CF"/>
<path d="M74.8695 40.7911C64.2281 40.9594 62.7632 64.1666 62.7632 64.1666C62.2014 75.0332 64.0305 83.6352 67.3066 86.8638C68.2814 87.8088 69.4087 88.5846 70.6416 89.159C74.2101 90.6891 77.6273 89.7073 78.5944 89.414C80.2921 88.8938 81.8609 88.0249 83.1994 86.8638C83.1994 84.0585 83.2037 81.2532 83.2122 78.448C83.2757 70.9848 83.8 63.5326 84.7823 56.1334C85.15 53.3723 85.5673 50.6945 86.0342 48.1001C86.0342 48.1001 85.5134 40.6228 74.8695 40.7911Z" fill="#2599CF"/>
</g>
<defs>
<clipPath id="clip0_42_21">
<rect width="139" height="117" fill="white"/>
</clipPath>
</defs>
</svg>
