<svg width="64" height="51" viewBox="0 0 64 51" fill="none" xmlns="http://www.w3.org/2000/svg">
<path fill-rule="evenodd" clip-rule="evenodd" d="M52.733 0.782297C52.7336 0.782672 52.7353 0.791597 52.7366 0.807929C52.7331 0.79009 52.7325 0.781922 52.733 0.782297ZM51.3455 1.96671C51.3454 1.96648 51.3496 1.96764 51.3586 1.97087C51.3501 1.96856 51.3456 1.96695 51.3455 1.96671ZM55.92 5.59571C54.8515 4.61549 53.8356 3.72924 52.9908 3.06441C52.9454 4.43144 52.5248 5.5528 52.0174 6.40493C51.6461 7.02856 51.2362 7.49677 50.9143 7.8133C50.7526 7.97232 50.6106 8.09553 50.5028 8.18334C50.4488 8.22732 50.4031 8.26265 50.3674 8.28938L50.3407 8.30923L50.3216 8.32311L50.3047 8.3352L50.2978 8.34006L50.2948 8.3422L50.2933 8.34319C50.2927 8.34366 50.292 8.34413 49.4358 7.11247L50.292 8.34413L49.906 8.61247H49.4358H15.5617C13.3414 8.61247 11.233 9.59662 9.33435 11.1709C7.43623 12.7448 5.84159 14.8351 4.69477 16.832C4.08054 17.9016 3.62404 18.8927 3.3174 19.7182C5.76824 18.0038 8.53349 16.9891 10.7523 16.3903C12.0759 16.0331 13.236 15.8158 14.0686 15.6872C14.4855 15.6229 14.8221 15.5805 15.058 15.554C15.176 15.5407 15.2689 15.5314 15.3343 15.5252C15.354 15.5234 15.3711 15.5218 15.3857 15.5205C15.3954 15.5196 15.404 15.5189 15.4115 15.5182L15.434 15.5163L15.4411 15.5158L15.4437 15.5156L15.4447 15.5155C15.4451 15.5155 15.4455 15.5154 15.5617 17.0109C15.5107 15.5118 15.5109 15.5118 15.5111 15.5118L15.5122 15.5117L15.5166 15.5116L15.5335 15.511L15.6002 15.5088L15.8596 15.5002C16.0869 15.4927 16.4203 15.4819 16.8454 15.4685C17.6956 15.4417 18.9127 15.4045 20.3812 15.363C23.3179 15.2799 27.262 15.1794 31.2889 15.1096C35.313 15.0399 39.4311 15.0007 42.7116 15.0409C44.35 15.061 45.7957 15.1011 46.9229 15.1686C47.4855 15.2023 47.986 15.2438 48.3999 15.2958C48.7753 15.3429 49.2041 15.4124 49.5477 15.5425C51.3201 16.2132 52.2583 17.757 52.7498 18.9676L61.1867 10.6971C60.9112 10.4188 60.5902 10.0963 60.2348 9.7422C59.0391 8.55087 57.4617 7.01004 55.92 5.59571ZM15.5617 17.0109L15.4455 15.5154L15.4781 15.5129L15.5107 15.5118L15.5617 17.0109ZM49.4397 4.87014C49.2493 5.18993 49.0412 5.43825 48.8722 5.61247H15.5617C12.4226 5.61247 9.65897 7.00461 7.41946 8.86157C5.17944 10.719 3.3699 13.115 2.09325 15.338C0.841014 17.5185 -0.00399745 19.7179 -0.14057 21.2189C-0.175475 21.6025 -0.175897 22.0519 -0.0557293 22.4845C0.0669136 22.9259 0.378621 23.5389 1.08986 23.8357C1.75905 24.115 2.39464 23.9469 2.79117 23.7764C3.20688 23.5977 3.6028 23.3163 3.9709 23.0009C6.21634 21.0769 9.1153 19.9394 11.5339 19.2867C12.7304 18.9638 13.7796 18.7674 14.5263 18.6521C14.899 18.5946 15.1946 18.5576 15.3934 18.5352C15.4927 18.524 15.5678 18.5165 15.6161 18.5119L15.6515 18.5087L15.7004 18.5071L15.9581 18.4986C16.1841 18.4911 16.5162 18.4804 16.9399 18.467C17.7873 18.4403 19.0012 18.4032 20.4661 18.3618C23.3962 18.2789 27.3287 18.1787 31.3408 18.1092C35.3557 18.0396 39.4389 18.001 42.6749 18.0407C44.2947 18.0605 45.686 18.0999 46.7436 18.1632C47.2735 18.1949 47.7024 18.2317 48.0259 18.2724C48.3121 18.3083 48.445 18.3393 48.4789 18.3472C48.4833 18.3482 48.486 18.3489 48.4872 18.3491C48.4884 18.3493 48.488 18.3491 48.486 18.3483C49.168 18.6064 49.6885 19.3185 50.0447 20.2892C50.211 20.7422 50.3134 21.1787 50.3738 21.5048C50.4036 21.6659 50.4223 21.7955 50.4331 21.8806C50.4385 21.9231 50.4419 21.9541 50.4438 21.9722L50.4453 21.9862L50.4453 21.987L50.4454 21.9883L50.4455 21.9892L50.4456 21.9899L50.7082 25.1699L52.9901 22.933L64.3584 11.789L65.4222 10.7462L64.3867 9.67526L63.3083 10.7179C64.3867 9.67526 64.3866 9.67515 64.3865 9.67499L64.3859 9.67442L64.3839 9.67235L64.3764 9.6646L64.3477 9.63493L64.2373 9.52137C64.141 9.42251 64.0004 9.27856 63.8222 9.09705C63.4657 8.73411 62.9581 8.22063 62.3522 7.61698C61.1424 6.41155 59.5325 4.83862 57.948 3.38502C56.3866 1.95261 54.7732 0.564493 53.578 -0.216884C53.2735 -0.415955 52.9599 -0.599948 52.6553 -0.737559C52.3901 -0.857413 51.9598 -1.02377 51.4758 -1.00722C51.2074 -0.998034 50.8592 -0.930125 50.5252 -0.7054C50.1781 -0.471867 49.9636 -0.147823 49.8508 0.17085C49.6565 0.719767 49.7569 1.26019 49.8345 1.57344C50.2141 3.10573 49.8516 4.17832 49.4397 4.87014ZM2.81017 40.3029L11.2471 32.0324C11.7386 33.243 12.6768 34.7868 14.4492 35.4575C14.7928 35.5876 15.2216 35.6571 15.597 35.7042C16.0109 35.7562 16.5114 35.7977 17.074 35.8314C18.2012 35.8989 19.6469 35.939 21.2853 35.9591C24.5658 35.9993 28.6839 35.9601 32.708 35.8904C36.7349 35.8206 40.679 35.7201 43.6157 35.637C45.0842 35.5955 46.3013 35.5583 47.1515 35.5315C47.5766 35.5181 47.91 35.5073 48.1373 35.4998L48.3967 35.4912L48.4634 35.489L48.4803 35.4884L48.4847 35.4883L48.4858 35.4882C48.486 35.4882 48.4862 35.4882 48.4352 33.9891L48.4862 35.4882L48.5188 35.4871L48.5514 35.4846L48.4352 33.9891C48.5514 35.4846 48.5518 35.4846 48.5522 35.4845L48.5532 35.4844L48.5558 35.4842L48.5629 35.4837L48.5854 35.4818C48.6041 35.4802 48.6299 35.4779 48.6626 35.4748C48.728 35.4686 48.8209 35.4593 48.9389 35.446C49.1748 35.4195 49.5114 35.3771 49.9283 35.3128C50.7609 35.1842 51.921 34.9669 53.2446 34.6097C55.4634 34.0109 58.2287 32.9962 60.6795 31.2818C60.3729 32.1073 59.9164 33.0984 59.3021 34.168C58.1553 36.1649 56.5607 38.2552 54.6625 39.8291C52.7639 41.4034 50.6555 42.3875 48.4352 42.3875H14.5611H14.0909L13.7049 42.6559L14.5611 43.8875C13.7049 42.6559 13.7042 42.6563 13.7035 42.6568L13.7021 42.6578L13.6991 42.6599L13.6922 42.6648L13.6753 42.6769C13.6626 42.686 13.6473 42.6973 13.6295 42.7106C13.5938 42.7374 13.5481 42.7727 13.4941 42.8167C13.3863 42.9045 13.2443 43.0277 13.0826 43.1867C12.7606 43.5032 12.3508 43.9714 11.9795 44.5951C11.4721 45.4472 11.0515 46.5686 11.0061 47.9356C10.1613 47.2708 9.14542 46.3845 8.0769 45.4043C6.53517 43.99 4.9578 42.4491 3.76207 41.2578C3.40666 40.9037 3.08566 40.5812 2.81017 40.3029ZM48.2965 32.4929L48.3454 32.4913L48.3808 32.4881C48.4291 32.4835 48.5042 32.476 48.6035 32.4648C48.8023 32.4424 49.0979 32.4054 49.4706 32.3479C50.2173 32.2326 51.2665 32.0362 52.463 31.7133C54.8816 31.0606 57.7806 29.9231 60.026 27.9991C60.3941 27.6837 60.79 27.4023 61.2057 27.2236C61.6023 27.0531 62.2379 26.885 62.9071 27.1643C63.6183 27.4611 63.93 28.0741 64.0526 28.5155C64.1728 28.9481 64.1724 29.3975 64.1375 29.7811C64.0009 31.2821 63.1559 33.4815 61.9037 35.662C60.627 37.885 58.8175 40.281 56.5774 42.1384C54.3379 43.9954 51.5743 45.3875 48.4352 45.3875H15.1247C14.9557 45.5617 14.7476 45.8101 14.5572 46.1299C14.1453 46.8217 13.7828 47.8943 14.1624 49.4266C14.24 49.7398 14.3404 50.2802 14.1461 50.8292C14.0333 51.1478 13.8188 51.4719 13.4717 51.7054C13.1377 51.9301 12.7895 51.998 12.5211 52.0072C12.0371 52.0238 11.6068 51.8574 11.3416 51.7376C11.037 51.5999 10.7234 51.416 10.4189 51.2169C9.22373 50.4355 7.61032 49.0474 6.04889 47.615C4.46435 46.1614 2.85454 44.5885 1.64466 43.383C1.03879 42.7794 0.531217 42.2659 0.174745 41.9029C-0.00352371 41.7214 -0.144095 41.5775 -0.240376 41.4786L-0.350781 41.3651L-0.379544 41.3354L-0.387046 41.3277L-0.389043 41.3256L-0.389599 41.325C-0.389754 41.3249 -0.389859 41.3247 0.688546 40.2821L-0.389859 41.3247L-1.42529 40.2538L-0.361494 39.211L11.0068 28.067L13.2887 25.8301L13.5513 29.0097L13.5513 29.0101L13.5514 29.0108L13.5514 29.0109L13.5531 29.0278C13.555 29.0459 13.5584 29.0769 13.5638 29.1194C13.5746 29.2045 13.5933 29.3341 13.6231 29.4952C13.6835 29.8213 13.7859 30.2578 13.9522 30.7108C14.3084 31.6815 14.8289 32.3936 15.511 32.6517C15.507 32.6502 15.509 32.6507 15.518 32.6528C15.5519 32.6607 15.6848 32.6917 15.971 32.7276C16.2945 32.7683 16.7234 32.8051 17.2533 32.8368C18.3109 32.9001 19.7022 32.9395 21.3221 32.9593C24.558 32.999 28.6412 32.9604 32.6561 32.8908C36.6682 32.8213 40.6007 32.7211 43.5308 32.6382C44.9957 32.5968 46.2096 32.5597 47.057 32.533C47.4807 32.5196 47.8128 32.5089 48.0388 32.5014L48.2965 32.4929ZM11.2639 50.2177C11.2633 50.2173 11.2616 50.2084 11.2603 50.1921C11.2638 50.2099 11.2644 50.2181 11.2639 50.2177ZM12.6472 49.0317C12.6451 49.031 12.6421 49.0302 12.6382 49.0291C12.6473 49.0324 12.6515 49.0335 12.6514 49.0333C12.6514 49.0332 12.65 49.0326 12.6472 49.0317Z" fill="black"/>
</svg>
