<svg id="visual" viewBox="0 0 675 900" width="675" height="900" xmlns="http://www.w3.org/2000/svg" xmlns:xlink="http://www.w3.org/1999/xlink" version="1.1"><path d="M0 236L16 220.7C32 205.3 64 174.7 96.2 160.7C128.3 146.7 160.7 149.3 192.8 158.3C225 167.3 257 182.7 289.2 195.8C321.3 209 353.7 220 385.8 213.8C418 207.7 450 184.3 482.2 166.3C514.3 148.3 546.7 135.7 578.8 141.5C611 147.3 643 171.7 659 183.8L675 196L675 0L659 0C643 0 611 0 578.8 0C546.7 0 514.3 0 482.2 0C450 0 418 0 385.8 0C353.7 0 321.3 0 289.2 0C257 0 225 0 192.8 0C160.7 0 128.3 0 96.2 0C64 0 32 0 16 0L0 0Z" fill="#EE3283" stroke-linecap="round" stroke-linejoin="miter"></path></svg>