<svg id="visual" viewBox="0 0 450 100" width="450" height="100" xmlns="http://www.w3.org/2000/svg" xmlns:xlink="http://www.w3.org/1999/xlink" version="1.1"><path d="M0 19L5.8 21.2C11.7 23.3 23.3 27.7 34.8 36C46.3 44.3 57.7 56.7 69.2 59.5C80.7 62.3 92.3 55.7 103.8 56.2C115.3 56.7 126.7 64.3 138.2 67.2C149.7 70 161.3 68 173 60C184.7 52 196.3 38 207.8 33.3C219.3 28.7 230.7 33.3 242.2 39.5C253.7 45.7 265.3 53.3 277 54.7C288.7 56 300.3 51 311.8 46.2C323.3 41.3 334.7 36.7 346.2 36.3C357.7 36 369.3 40 380.8 38.5C392.3 37 403.7 30 415.2 27.7C426.7 25.3 438.3 27.7 444.2 28.8L450 30L450 101L444.2 101C438.3 101 426.7 101 415.2 101C403.7 101 392.3 101 380.8 101C369.3 101 357.7 101 346.2 101C334.7 101 323.3 101 311.8 101C300.3 101 288.7 101 277 101C265.3 101 253.7 101 242.2 101C230.7 101 219.3 101 207.8 101C196.3 101 184.7 101 173 101C161.3 101 149.7 101 138.2 101C126.7 101 115.3 101 103.8 101C92.3 101 80.7 101 69.2 101C57.7 101 46.3 101 34.8 101C23.3 101 11.7 101 5.8 101L0 101Z" fill="#1c2022" stroke-linecap="round" stroke-linejoin="miter"></path></svg>